<svg xmlns="http://www.w3.org/2000/svg" xmlns:xlink="http://www.w3.org/1999/xlink" width="500" zoomAndPan="magnify" viewBox="0 0 375 374.999991" height="500" preserveAspectRatio="xMidYMid meet" version="1.0"><defs><clipPath id="593b8453b8"><path d="M 14.8125 0 L 360.191406 0 L 360.191406 374.996094 L 14.8125 374.996094 Z M 14.8125 0 " clip-rule="nonzero"/></clipPath></defs><g clip-path="url(#593b8453b8)"><path fill="#22327d" d="M 51.085938 170.027344 L 51.074219 174.488281 L 51.085938 174.488281 Z M 51.085938 153.414062 C 51.007812 159.636719 51.003906 166.621094 51.015625 174.488281 L 50.777344 174.488281 L 50.777344 306.910156 C 39.402344 298.828125 31.613281 291.152344 25.871094 281.226562 L 25.839844 281.246094 C 14.792969 262.109375 14.820312 240.53125 14.875 197.378906 C 14.90625 173.28125 14.8125 243.523438 14.8125 187.496094 C 14.8125 131.46875 14.90625 201.710938 14.875 177.613281 C 14.820312 134.460938 14.792969 112.882812 25.839844 93.746094 L 25.871094 93.765625 C 31.664062 83.75 39.546875 76.027344 51.085938 67.863281 Z M 51.085938 174.488281 L 51.085938 170.027344 C 51.089844 168.558594 51.09375 169.246094 51.097656 174.488281 Z M 129.75 312.105469 L 129.75 312.109375 L 128.1875 311.203125 L 128.175781 311.222656 L 129.75 312.128906 L 129.75 353.84375 C 123.769531 350.472656 117.257812 346.703125 110.042969 342.523438 C 96.382812 334.617188 118.875 347.574219 104.3125 339.164062 L 104.242188 339.335938 L 94.910156 333.777344 L 94.910156 292.011719 C 99.753906 294.84375 105.101562 297.921875 110.996094 301.316406 C 125.511719 309.675781 97.628906 293.546875 119.632812 306.25 L 119.613281 306.28125 C 123.605469 308.585938 126.351562 310.171875 128.175781 311.222656 L 128.1875 311.203125 C 126.335938 310.128906 124.929688 309.316406 128.1875 311.199219 Z M 129.75 113.867188 C 93.683594 134.789062 95.199219 136.75 95.199219 187.496094 C 95.199219 238.238281 93.683594 240.203125 129.75 261.125 Z M 129.75 62.890625 L 128.1875 63.792969 C 124.929688 65.675781 126.335938 64.863281 128.1875 63.792969 L 128.175781 63.773438 C 126.351562 64.824219 123.605469 66.40625 119.613281 68.710938 L 119.632812 68.742188 C 96.523438 82.082031 125.632812 65.25 110.996094 73.675781 C 79.234375 91.960938 63.351562 101.105469 57.164062 111.820312 L 57.164062 111.890625 C 52.5 119.964844 51.351562 132.296875 51.085938 153.414062 L 51.085938 67.863281 C 61.609375 60.421875 75.179688 52.609375 92.996094 42.351562 C 102.144531 37.082031 72.449219 54.183594 101.488281 37.414062 L 101.558594 37.414062 C 121.46875 25.921875 95.632812 40.8125 110.042969 32.464844 C 117.257812 28.292969 123.769531 24.519531 129.75 21.152344 L 129.75 62.863281 L 128.175781 63.773438 L 128.1875 63.792969 L 129.75 62.882812 Z M 188.167969 338.707031 L 188.167969 374.996094 C 170.371094 374.996094 154.761719 367.941406 129.75 353.84375 L 129.75 312.128906 C 132.3125 313.601562 131.320312 313.023438 129.75 312.109375 L 129.75 312.105469 C 160.378906 329.839844 175.898438 338.707031 188.167969 338.707031 Z M 188.167969 86.0625 L 188.167969 288.933594 C 177.007812 288.933594 165.84375 281.957031 141.683594 268.007812 C 137.304688 265.480469 133.34375 263.207031 129.75 261.125 L 129.75 113.867188 C 133.34375 111.785156 137.304688 109.515625 141.683594 106.988281 C 165.84375 93.035156 177.007812 86.0625 188.167969 86.0625 Z M 188.167969 36.285156 C 175.898438 36.285156 160.378906 45.152344 129.75 62.890625 L 129.75 62.882812 C 131.320312 61.96875 132.3125 61.390625 129.75 62.863281 L 129.75 21.152344 C 154.761719 7.050781 170.371094 0 188.167969 0 Z M 246.585938 312.105469 L 246.585938 312.109375 C 245.011719 313.023438 244.019531 313.601562 246.585938 312.128906 L 246.585938 353.84375 C 221.574219 367.941406 205.964844 374.996094 188.167969 374.996094 L 188.167969 338.707031 C 200.433594 338.707031 215.953125 329.839844 246.585938 312.105469 Z M 246.585938 113.867188 L 246.585938 261.125 C 242.992188 263.207031 239.027344 265.480469 234.648438 268.007812 C 210.488281 281.957031 199.328125 288.933594 188.167969 288.933594 L 188.167969 86.0625 C 199.328125 86.0625 210.488281 93.035156 234.648438 106.988281 C 239.027344 109.515625 242.992188 111.785156 246.585938 113.867188 Z M 246.585938 62.886719 C 215.953125 45.152344 200.433594 36.285156 188.167969 36.285156 L 188.167969 0 C 205.964844 0 221.574219 7.050781 246.585938 21.152344 L 246.585938 62.863281 C 244.019531 61.390625 245.011719 61.96875 246.585938 62.882812 Z M 246.585938 261.125 C 282.652344 240.203125 281.132812 238.242188 281.132812 187.496094 C 281.132812 136.75 282.652344 134.789062 246.585938 113.867188 Z M 246.585938 353.84375 L 246.585938 312.128906 L 248.15625 311.222656 L 248.148438 311.203125 L 246.585938 312.109375 L 246.585938 312.105469 L 248.148438 311.199219 C 251.402344 309.316406 249.996094 310.128906 248.148438 311.203125 L 248.15625 311.222656 C 249.980469 310.171875 252.726562 308.585938 256.71875 306.28125 L 256.699219 306.25 C 279.808594 292.910156 250.699219 309.742188 265.335938 301.316406 C 297.097656 283.03125 312.984375 273.886719 319.167969 263.171875 L 319.167969 263.101562 C 321.429688 259.179688 322.867188 254.257812 323.777344 247.8125 L 360.191406 247.8125 C 358.839844 261.238281 356.085938 271.558594 350.492188 281.246094 L 350.460938 281.226562 C 339.382812 300.378906 320.6875 311.140625 283.335938 332.640625 C 274.1875 337.90625 303.886719 320.808594 274.84375 337.574219 L 274.773438 337.574219 C 254.863281 349.070312 280.699219 334.179688 266.289062 342.523438 C 259.078125 346.703125 252.5625 350.472656 246.585938 353.84375 Z M 274.84375 37.414062 C 302.78125 53.546875 274.308594 37.15625 283.335938 42.351562 C 320.6875 63.851562 339.382812 74.617188 350.460938 93.765625 L 350.492188 93.746094 C 355.347656 102.160156 358.066406 111.046875 359.582031 122.027344 L 322.863281 122.027344 C 321.980469 118.011719 320.785156 114.691406 319.167969 111.890625 L 319.167969 111.820312 C 312.984375 101.105469 297.097656 91.960938 265.335938 73.675781 C 250.820312 65.320312 278.703125 81.445312 256.699219 68.742188 L 256.71875 68.710938 C 252.726562 66.40625 249.980469 64.824219 248.15625 63.773438 L 248.148438 63.792969 C 249.996094 64.863281 251.402344 65.675781 248.148438 63.792969 L 246.585938 62.886719 L 246.585938 62.882812 L 248.148438 63.792969 L 248.15625 63.773438 L 246.585938 62.863281 L 246.585938 21.152344 C 252.5625 24.519531 259.078125 28.292969 266.289062 32.464844 C 280.699219 40.8125 254.863281 25.921875 274.773438 37.414062 L 274.84375 37.414062 " fill-opacity="1" fill-rule="nonzero"/></g></svg>